<mxfile host="app.diagrams.net" agent="Mozilla/5.0 (Windows NT 10.0; Win64; x64) AppleWebKit/537.36 (KHTML, like Gecko) Chrome/131.0.0.0 Safari/537.36" version="25.0.1">
  <diagram name="Page-1" id="5mj4Lz4yVKEXC42r9lCS">
    <mxGraphModel dx="3088" dy="1949" grid="1" gridSize="10" guides="1" tooltips="1" connect="1" arrows="1" fold="1" page="1" pageScale="1" pageWidth="827" pageHeight="1169" math="0" shadow="0">
      <root>
        <mxCell id="0" />
        <mxCell id="1" parent="0" />
        <mxCell id="yqZXzDv2rFx5ukr-DRzX-2" value="&lt;p style=&quot;margin:0px;margin-top:6px;text-align:center;&quot;&gt;&lt;b&gt;Component&lt;/b&gt;&lt;/p&gt;&lt;hr size=&quot;1&quot; style=&quot;border-style:solid;&quot;/&gt;&lt;p style=&quot;margin:0px;margin-left:8px;&quot;&gt;+ Attribute1: Type&lt;br/&gt;+ Attribute2: Type&lt;/p&gt;" style="align=left;overflow=fill;html=1;dropTarget=0;whiteSpace=wrap;" vertex="1" parent="1">
          <mxGeometry x="-1040" y="-920" width="180" height="90" as="geometry" />
        </mxCell>
        <mxCell id="yqZXzDv2rFx5ukr-DRzX-3" value="" style="shape=component;jettyWidth=8;jettyHeight=4;" vertex="1" parent="yqZXzDv2rFx5ukr-DRzX-2">
          <mxGeometry x="1" width="20" height="20" relative="1" as="geometry">
            <mxPoint x="-24" y="4" as="offset" />
          </mxGeometry>
        </mxCell>
        <mxCell id="yqZXzDv2rFx5ukr-DRzX-4" value="&lt;p style=&quot;margin:0px;margin-top:4px;text-align:center;&quot;&gt;&lt;b&gt;Class&lt;/b&gt;&lt;/p&gt;&lt;hr size=&quot;1&quot; style=&quot;border-style:solid;&quot;/&gt;&lt;p style=&quot;margin:0px;margin-left:4px;&quot;&gt;+ field: Type&lt;/p&gt;&lt;hr size=&quot;1&quot; style=&quot;border-style:solid;&quot;/&gt;&lt;p style=&quot;margin:0px;margin-left:4px;&quot;&gt;+ method(): Type&lt;/p&gt;" style="verticalAlign=top;align=left;overflow=fill;html=1;whiteSpace=wrap;" vertex="1" parent="1">
          <mxGeometry x="-1330" y="-980" width="160" height="90" as="geometry" />
        </mxCell>
        <mxCell id="yqZXzDv2rFx5ukr-DRzX-5" value="&lt;p style=&quot;margin:0px;margin-top:4px;text-align:center;&quot;&gt;&lt;b&gt;Class&lt;/b&gt;&lt;/p&gt;&lt;hr size=&quot;1&quot; style=&quot;border-style:solid;&quot;/&gt;&lt;p style=&quot;margin:0px;margin-left:4px;&quot;&gt;+ field: Type&lt;/p&gt;&lt;hr size=&quot;1&quot; style=&quot;border-style:solid;&quot;/&gt;&lt;p style=&quot;margin:0px;margin-left:4px;&quot;&gt;+ method(): Type&lt;/p&gt;" style="verticalAlign=top;align=left;overflow=fill;html=1;whiteSpace=wrap;" vertex="1" parent="1">
          <mxGeometry x="-1340" y="-700" width="160" height="90" as="geometry" />
        </mxCell>
        <mxCell id="yqZXzDv2rFx5ukr-DRzX-6" value="&lt;p style=&quot;margin:0px;margin-top:4px;text-align:center;&quot;&gt;&lt;b&gt;Class&lt;/b&gt;&lt;/p&gt;&lt;hr size=&quot;1&quot; style=&quot;border-style:solid;&quot;/&gt;&lt;p style=&quot;margin:0px;margin-left:4px;&quot;&gt;+ field: Type&lt;/p&gt;&lt;hr size=&quot;1&quot; style=&quot;border-style:solid;&quot;/&gt;&lt;p style=&quot;margin:0px;margin-left:4px;&quot;&gt;+ method(): Type&lt;/p&gt;" style="verticalAlign=top;align=left;overflow=fill;html=1;whiteSpace=wrap;" vertex="1" parent="1">
          <mxGeometry x="-1070" y="-770" width="160" height="90" as="geometry" />
        </mxCell>
        <mxCell id="yqZXzDv2rFx5ukr-DRzX-7" value="&lt;p style=&quot;margin:0px;margin-top:4px;text-align:center;&quot;&gt;&lt;b&gt;Class&lt;/b&gt;&lt;/p&gt;&lt;hr size=&quot;1&quot; style=&quot;border-style:solid;&quot;/&gt;&lt;p style=&quot;margin:0px;margin-left:4px;&quot;&gt;+ field: Type&lt;/p&gt;&lt;hr size=&quot;1&quot; style=&quot;border-style:solid;&quot;/&gt;&lt;p style=&quot;margin:0px;margin-left:4px;&quot;&gt;+ method(): Type&lt;/p&gt;" style="verticalAlign=top;align=left;overflow=fill;html=1;whiteSpace=wrap;" vertex="1" parent="1">
          <mxGeometry x="-1570" y="-850" width="160" height="90" as="geometry" />
        </mxCell>
        <mxCell id="yqZXzDv2rFx5ukr-DRzX-8" value="Actor" style="shape=umlActor;verticalLabelPosition=bottom;verticalAlign=top;html=1;" vertex="1" parent="1">
          <mxGeometry x="-1560" y="-920" width="30" height="60" as="geometry" />
        </mxCell>
        <mxCell id="yqZXzDv2rFx5ukr-DRzX-9" value="1" style="endArrow=open;html=1;endSize=12;startArrow=diamondThin;startSize=14;startFill=0;edgeStyle=orthogonalEdgeStyle;align=left;verticalAlign=bottom;rounded=0;entryX=0.5;entryY=1;entryDx=0;entryDy=0;" edge="1" parent="1" source="yqZXzDv2rFx5ukr-DRzX-7" target="yqZXzDv2rFx5ukr-DRzX-4">
          <mxGeometry x="-1" y="3" relative="1" as="geometry">
            <mxPoint x="-1320" y="-860" as="sourcePoint" />
            <mxPoint x="-1220" y="-805" as="targetPoint" />
          </mxGeometry>
        </mxCell>
        <mxCell id="yqZXzDv2rFx5ukr-DRzX-10" value="dispatch" style="html=1;verticalAlign=bottom;startArrow=oval;startFill=1;endArrow=block;startSize=8;curved=0;rounded=0;exitX=0.569;exitY=-0.011;exitDx=0;exitDy=0;exitPerimeter=0;entryX=0.013;entryY=0.078;entryDx=0;entryDy=0;entryPerimeter=0;" edge="1" parent="1" source="yqZXzDv2rFx5ukr-DRzX-5" target="yqZXzDv2rFx5ukr-DRzX-6">
          <mxGeometry width="60" relative="1" as="geometry">
            <mxPoint x="-1120" y="-780" as="sourcePoint" />
            <mxPoint x="-1060" y="-780" as="targetPoint" />
            <Array as="points">
              <mxPoint x="-1250" y="-760" />
            </Array>
          </mxGeometry>
        </mxCell>
        <mxCell id="yqZXzDv2rFx5ukr-DRzX-11" value="1" style="endArrow=open;html=1;endSize=12;startArrow=diamondThin;startSize=14;startFill=0;edgeStyle=orthogonalEdgeStyle;align=left;verticalAlign=bottom;rounded=0;exitX=0.089;exitY=0.011;exitDx=0;exitDy=0;exitPerimeter=0;" edge="1" parent="1" source="yqZXzDv2rFx5ukr-DRzX-2">
          <mxGeometry x="-1" y="3" relative="1" as="geometry">
            <mxPoint x="-1230" y="-850" as="sourcePoint" />
            <mxPoint x="-1160" y="-830" as="targetPoint" />
            <Array as="points">
              <mxPoint x="-1024" y="-930" />
              <mxPoint x="-1054" y="-930" />
              <mxPoint x="-1054" y="-849" />
            </Array>
          </mxGeometry>
        </mxCell>
      </root>
    </mxGraphModel>
  </diagram>
</mxfile>
